<svg version="1.1" xmlns="http://www.w3.org/2000/svg" width="329" height="512" viewBox="0 0 329 512"><title>angle-up</title><path d="M307.143 338.286c0 2.286-1.143 4.857-2.857 6.572l-14.286 14.286c-1.714 1.714-4 2.857-6.572 2.857-2.286 0-4.857-1.143-6.572-2.857l-112.286-112.286-112.285 112.286c-1.715 1.714-4.285 2.857-6.572 2.857s-4.857-1.143-6.572-2.857l-14.285-14.286c-1.715-1.714-2.857-4.286-2.857-6.572s1.143-4.857 2.857-6.572l133.143-133.143c1.714-1.714 4.286-2.857 6.571-2.857s4.857 1.143 6.572 2.857l133.143 133.143c1.714 1.714 2.857 4.286 2.857 6.572z"></path></svg>