<svg version="1.1" xmlns="http://www.w3.org/2000/svg" width="439" height="512" viewBox="0 0 439 512"><title>bars</title><path d="M438.857 384v36.572c0 10-8.286 18.286-18.286 18.286h-402.286c-10 0-18.285-8.286-18.285-18.286v-36.572c0-10 8.286-18.286 18.285-18.286h402.286c10 0 18.286 8.286 18.286 18.286zM438.857 237.714v36.572c0 10-8.286 18.286-18.286 18.286h-402.286c-10 0-18.285-8.286-18.285-18.286v-36.572c0-10 8.286-18.286 18.285-18.286h402.286c10 0 18.286 8.286 18.286 18.286zM438.857 91.428v36.572c0 10-8.286 18.286-18.286 18.286h-402.286c-10 0-18.285-8.286-18.285-18.286v-36.572c0-10 8.286-18.285 18.285-18.285h402.286c10 0 18.286 8.285 18.286 18.285z"></path></svg>