<svg version="1.1" xmlns="http://www.w3.org/2000/svg" width="439" height="512" viewBox="0 0 439 512"><title>clock-o</title><path d="M256 155.429v128c0 5.143-4 9.143-9.143 9.143h-91.429c-5.143 0-9.143-4-9.143-9.143v-18.286c0-5.143 4-9.143 9.143-9.143h64v-100.571c0-5.143 4-9.143 9.143-9.143h18.285c5.143 0 9.143 4 9.143 9.143zM374.857 256c0-85.714-69.714-155.429-155.429-155.429s-155.429 69.715-155.429 155.429 69.714 155.428 155.429 155.428 155.429-69.714 155.429-155.429zM438.857 256c0 121.143-98.286 219.428-219.429 219.428s-219.429-98.286-219.429-219.429 98.285-219.429 219.429-219.429 219.429 98.286 219.429 219.429z"></path></svg>