<svg version="1.1" xmlns="http://www.w3.org/2000/svg" width="512" height="512" viewBox="0 0 512 512"><title>eye</title><path d="M475.428 274.286c-27.143-42-64.286-78-108.857-100.857 11.428 19.429 17.428 41.715 17.428 64.285 0 70.572-57.428 128-128 128s-128-57.428-128-128c0-22.572 6-44.857 17.428-64.286-44.572 22.857-81.715 58.857-108.857 100.857 48.857 75.428 127.715 128 219.429 128s170.572-52.572 219.428-128zM269.714 164.571c0-7.429-6.286-13.714-13.714-13.714-47.714 0-86.857 39.143-86.857 86.857 0 7.428 6.286 13.714 13.714 13.714s13.714-6.286 13.714-13.714c0-32.572 26.857-59.428 59.429-59.428 7.428 0 13.714-6.286 13.714-13.714zM512 274.286c0 7.143-2.286 13.714-5.714 19.714-52.572 86.572-148.857 144.857-250.286 144.857s-197.714-58.572-250.286-144.857c-3.429-6-5.715-12.572-5.715-19.714s2.285-13.714 5.715-19.714c52.572-86.286 148.857-144.857 250.286-144.857s197.714 58.571 250.286 144.857c3.428 6 5.714 12.572 5.714 19.714z"></path></svg>