<svg version="1.1" xmlns="http://www.w3.org/2000/svg" width="475" height="512" viewBox="0 0 475 512"><title>shopping-cart</title><path d="M182.857 438.857c0 20-16.571 36.572-36.571 36.572s-36.572-16.572-36.572-36.572 16.572-36.572 36.572-36.572 36.572 16.572 36.572 36.572zM438.857 438.857c0 20-16.572 36.572-36.572 36.572s-36.572-16.572-36.572-36.572 16.572-36.572 36.572-36.572 36.572 16.572 36.572 36.572zM475.428 128v146.286c0 9.143-7.143 17.143-16.286 18.286l-298.286 34.857c1.429 6.572 3.714 13.143 3.714 20 0 6.572-4 12.572-6.857 18.286h262.857c10 0 18.286 8.286 18.286 18.286s-8.286 18.286-18.286 18.286h-292.572c-10 0-18.285-8.286-18.285-18.286 0-8.857 12.857-30.286 17.428-39.143l-50.572-235.143h-58.285c-10 0-18.285-8.285-18.285-18.285s8.286-18.285 18.285-18.285h73.143c19.143 0 19.715 22.857 22.572 36.572h343.143c10 0 18.286 8.285 18.286 18.285z"></path></svg>